<?xml version="1.0" encoding="utf-8"?>
<!-- Generator: Adobe Illustrator 22.1.0, SVG Export Plug-In . SVG Version: 6.00 Build 0)  -->
<svg version="1.1" id="Layer_1" xmlns="http://www.w3.org/2000/svg" xmlns:xlink="http://www.w3.org/1999/xlink" x="0px" y="0px"
	 viewBox="0 0 433.1 360" style="enable-background:new 0 0 433.1 360;" xml:space="preserve">
<style type="text/css">
	.st0{fill:#0096C9;}
	.st1{fill:#8CC63F;}
</style>
<g>
	<g>
		<path class="st0" d="M216.5,54c-62.3,0-114.8,43-129.4,100.8h21c0.1-0.1,0.2-0.2,0.2-0.3c4.3-5.4,9.3-10.1,14.9-13.9
			c5.6-3.8,11.7-6.8,18.2-8.9c1.1-0.4,2.2-0.7,3.3-1c16.8-21.3,42.8-34.9,71.9-34.9c35.6,0,66.5,20.4,81.7,50.2c0.1-1,0.4-1.8,1-2.6
			c0.5-0.6,1.8-1.7,3.9-1.7c0.1,0,0.2,0,0.3,0c1.5,0.1,3.1,0.5,4.7,1.4c1.5,0.8,2.8,1.8,4.1,3.2c0.5,0.6,1,1.2,1.4,1.9
			c1.1-0.1,2.2-0.2,3.4-0.3c2.3-0.1,4.8-0.3,7.4-0.4l0.1,0h0.1c1.1,0,2.4,0.1,4,0.2c1.6,0.1,3.3,0.3,4.9,0.6
			c1.8,0.3,3.5,0.9,5.1,1.5c1.8,0.8,3.4,1.8,4.6,3.1l0.1,0.1l0.1,0.1c0.4,0.5,0.8,1.1,1.1,1.6h1.6C331.4,96.9,278.9,54,216.5,54z
			 M129.2,134.6c-3.3,5.3-8.6,2.3-12.7-0.3c-3.9-2.4-8.4-6.1-5.3-11c2.1-3.3,5.6-3.4,8.6-1.4l-1.2,1.9c-2.1-1.2-4.2-1.7-5.8,0.7
			c-2.1,3.3,2.6,6.3,4.9,7.8c2.3,1.6,7.5,4.9,9.7,1.4c1.4-2.3-0.1-3.9-1.9-5.4c-0.4-0.3-0.7-0.6-1.1-0.9l1.2-1.9
			c0.3,0.3,0.7,0.5,1,0.8c1.3,1,2.3,1.7,3,3.3C130.3,131.3,130.2,132.9,129.2,134.6z M138.3,122.4c-2.4,2.8-5.3,3.5-8.1,1.1
			l-11.7-10.1l1.5-1.7l11.1,9.6c1.2,1.1,3.3,2.6,5.7-0.2c2.4-2.7,0.6-4.6-0.6-5.7l-11.1-9.6l1.5-1.7l11.7,10.1
			C140.9,116.6,140.7,119.6,138.3,122.4z M149.2,111.5c-1.5,1.3-3.7,2.4-6.3,1.2c-1-0.5-2-1.7-2.8-2.6l1.7-1.5
			c1.9,2.4,3.5,3.4,6.1,1.2c1.7-1.5,2.2-3.4,0.6-5.2c-2-2.4-3-1.6-5.1-0.8c-1.1,0.4-2.9,1.1-4.1,1.4c-2.1,0.5-3.5-0.4-4.8-1.9
			c-2.2-2.6-1.8-5.8,0.7-7.9c2.8-2.4,5.8-2.4,8.2,0.6l-1.7,1.5c-1.3-1.7-3.2-2.2-4.9-0.7c-2.5,2.1-1.4,3.9-0.4,5.1
			c0.9,1.1,2,1.3,3.3,0.9l3.3-1.2c3.9-1.4,5.3-0.8,7,1.2C152.6,105.6,152.2,108.9,149.2,111.5z M159.5,103.1l-9.9-15.5l-4.4,2.8
			l-1.1-1.7l10.8-6.9l1.1,1.7l-4.4,2.8l9.9,15.5L159.5,103.1z M173.8,95.8c-5.4,2.5-8.3-2.2-10.7-7.4c-1.9-4.3-3.5-9.6,2-12.1
			c5.4-2.5,8.4,2.2,10.3,6.5C177.6,88.1,179.2,93.4,173.8,95.8z M197.2,87.8l-4.1-16.3c-0.2-0.8-0.4-1.7-0.6-2.5l-0.1,0
			c0.1,1.2,0.1,2,0.1,2.8L192.4,89l-2.6,0.7l-8.2-15.4c-0.4-0.6-0.7-1.3-1.2-2.3l-0.1,0c0.2,0.8,0.5,1.7,0.7,2.5l4,16.3l-2.2,0.5
			l-4.9-19.8l3.9-1l7.7,14.5c0.4,0.8,0.7,1.6,1.2,2.8l0.1,0c-0.1-1-0.2-2-0.2-3.1l0.1-16.4l3.9-1l4.9,19.8L197.2,87.8z M227.2,86.5
			l-2.3-0.1l0.4-16.8c0-0.9,0.1-1.7,0.1-2.6l-0.1,0c-0.3,1.2-0.5,1.9-0.7,2.7L220,86.3l-2.7-0.1l-3.9-17c-0.2-0.7-0.3-1.4-0.5-2.5
			l-0.1,0c0,0.9,0,1.8,0,2.6l-0.4,16.8l-2.3-0.1l0.5-20.4l4,0.1l3.6,16c0.2,0.9,0.3,1.7,0.4,3l0.1,0c0.2-1,0.3-2,0.6-3l4.4-15.8
			l4,0.1L227.2,86.5z M241.1,89.2l-0.4-6.1l-6.3-1.3l-2.6,5.5l-2.5-0.5l9.7-18.9l2.9,0.6l1.7,21.1L241.1,89.2z M251.4,92.4l-5.6-2.1
			l7-19.2l5.3,1.9c6,2.2,5,7.3,3.2,12C259.3,89.7,256.6,94.3,251.4,92.4z M274.9,90.7l-1,1.8l-6.6-3.5l-3.6,6.6l7,3.8l-1,1.8l-9-4.9
			l9.7-18l9,4.8l-1,1.8l-7-3.8l-3.2,5.9L274.9,90.7z M283.2,110.9l-4.6-3.9l13.2-15.5l4.3,3.6c4.8,4.1,2.2,8.6-1.2,12.4
			C291.5,111.1,287.4,114.5,283.2,110.9z M291.2,118.5l14.9-13.9l1.5,1.7l-14.9,13.9L291.2,118.5z M303.7,130.6l-1.6,1.2l-6.2-8.2
			l16.3-12.3l6.1,8.1l-1.6,1.2l-4.8-6.3l-5.4,4.1l4.5,6l-1.6,1.2l-4.5-6l-6,4.5L303.7,130.6z M325.3,135.3l-2.6-4.6l-16,9.1l-1.1-2
			l16-9.1l-2.6-4.6l1.8-1l6.3,11.1L325.3,135.3z"/>
		<polygon class="st0" points="240,69.8 235.2,79.9 240.5,81 240,69.8 		"/>
		<path class="st0" d="M165.8,78.3c-3.2,1.4-2.5,5.1-0.6,9.2c2.5,5.4,4.3,8,7.7,6.4c3.4-1.5,2.7-4.6,0.3-10
			C171.4,79.8,169.1,76.8,165.8,78.3z"/>
		<path class="st0" d="M257.6,75.1l-3.4-1.2l-5.6,15.3l3.4,1.2c3.1,1.1,5.2-0.7,7.1-6.5C260.5,79.5,261,76.4,257.6,75.1z"/>
		<path class="st0" d="M295,96.8l-2.8-2.3l-10.6,12.4l2.8,2.3c2.5,2.2,5.2,1.2,9-3.6C296.2,102,297.7,99.2,295,96.8z"/>
		<path class="st0" d="M341.8,221.1c0-0.1,0-0.1,0-0.2h-5l0.1,1.1c0.1,1.6,0.1,3.1-0.1,4.7l-11.6-5.8v0l-0.1-0.1h-10.7l8.4,4.6v0
			l12.7,7.1c-0.6,1.7-1.3,3.5-2.2,5.3l-13.1-8l-2.1,3.3l2.1-3.4l-13.1-8c0.2-0.3,0.5-0.6,0.7-1h-5.5c-0.2,0.3-0.4,0.6-0.6,0.9l0,0
			l0,0l-0.1,0.1c-0.3,0.4-0.5,0.8-0.8,1.3l0,0c-0.8,1.2-1.5,2.4-2,3.7l0,0l-0.1,0.2c-0.6,1.3-1.2,2.6-1.6,3.9c-0.5,1.6-1,3-1.3,4.6
			l0,0c-0.1,0.3-0.1,0.7-0.2,1c-0.1,0.5-0.2,0.9-0.3,1.4l-0.1,0.9c-0.1,0.3-0.1,0.7-0.2,1l-0.1,0.7l0,0.3l0,0
			c-0.3,2.4-0.4,4.7-0.6,7.1c-0.1,2.4-0.2,4.8-0.4,7.2l0,0l0,0l0,0l0,0l0.1,0.1c-1.2-0.1-2.4-0.1-3.5-0.2c-1.2-0.1-2.4-0.2-3.6-0.3
			c-1.2-0.1-2.3-0.1-3.5-0.2c-1.2-0.1-2.4-0.1-3.5-0.1l0,0c-0.6,0-1.2,0-1.8,0l0,0l0,0c-0.7,0-1.4,0-2.1,0.1l-0.5,0
			c-0.4,0-0.7,0-1,0l0,0c-1.6,0.1-3.1,0.4-4.7,0.6l0,0c-0.3,0.1-0.6,0.1-0.9,0.2l-0.3,0l-0.3,0.1c-0.6,0.1-1.1,0.3-1.7,0.4L266,256
			c-0.2,0-0.4,0.1-0.6,0.1l0,0c-1.3,0.3-2.7,0.8-4,1.3l0,0c-0.8,0.3-1.7,0.6-2.5,1l0,0l0,0l-0.1,0c-0.5,0.2-0.9,0.4-1.4,0.7l0,0
			c-1.3,0.6-2.6,1.2-3.7,2l0,0l-0.1,0.1c-1.3,0.8-2.5,1.6-3.7,2.5c-1.1,0.9-2.1,1.8-3.1,2.7c-1,0.9-1.9,2-2.8,2.9
			c-1.6,1.7-3,3.6-4.4,5.4c-1.4,1.8-2.7,3.8-4.1,5.7l-1.3,1.8l0,0l0,0v0l0,0l0,0l0,0l0,0c-1.8-1.4-3.6-2.8-5.4-4.2
			c-1.8-1.4-3.5-2.8-5.4-4.1l0-0.1c-0.4-0.2-0.7-0.5-1.1-0.7L222,273c-1.3-0.8-2.5-1.6-3.9-2.3c-1.3-0.8-2.7-1.4-4.2-2
			c-2.8-1.2-5.9-2-9.4-2.5l0,0l-0.1,0c-0.1,0-0.2,0-0.4-0.1l0,0c-0.5-0.1-1-0.1-1.5-0.2l0,0c-1.3-0.2-2.6-0.2-3.9-0.2l0,0
			c-0.5,0-0.9,0-1.4,0c-0.2,0-0.5,0-0.7,0c-0.8,0-1.6,0.1-2.4,0.2l0,0c-1.6,0.2-3.1,0.4-4.6,0.8l0,0l-0.4,0.1
			c-0.6,0.1-1.2,0.3-1.8,0.5l-0.7,0.2l-0.4,0.1c-0.6,0.2-1.2,0.3-1.7,0.5l-0.1,0l0,0c-1.9,0.6-3.8,1.4-5.6,2.1
			c-1.8,0.7-3.7,1.6-5.6,2.3l-2.1,0.8l0,0l0,0.1c-0.9-2.2-1.7-4.4-2.6-6.6c-0.8-2.2-1.7-4.3-2.7-6.5l0,0c-0.2-0.6-0.5-1.1-0.8-1.6
			l0,0l0,0c-0.3-0.6-0.6-1.2-0.9-1.8l-0.2-0.4c-0.2-0.3-0.3-0.6-0.5-0.9l0,0c-0.7-1.4-1.6-2.7-2.5-4l0,0c-0.2-0.2-0.3-0.5-0.5-0.7
			l-0.2-0.2l-0.2-0.2c-0.3-0.5-0.7-0.9-1.1-1.4l-0.5-0.6c-0.1-0.2-0.3-0.3-0.4-0.5l0,0c-0.9-1.1-1.8-2.1-2.9-3.1l0,0
			c-0.6-0.6-1.3-1.2-2-1.8l0,0l0,0l-0.1,0c-0.4-0.3-0.8-0.7-1.2-1l0,0c-1.1-0.9-2.2-1.8-3.4-2.5l0,0l-0.1-0.1
			c-1.3-0.8-2.5-1.6-3.8-2.3c-1.3-0.6-2.5-1.2-3.8-1.7c-1.3-0.5-2.6-0.9-3.8-1.3c-4.5-1.3-9-2.1-13.7-3l-2.2-0.4l0,0l-0.1,0.1
			l0.5-2.4c0.1-0.4,0.2-0.7,0.2-1.1c-1.8,0.2-3.6,0.3-5.3,0.4c-0.1,0.6-0.3,1.2-0.4,1.9c-1.2-0.4-2.4-0.7-3.6-1.1
			c-1-0.3-1.9-0.7-2.9-1c-2.5-0.2-4.8-0.7-6.9-1.3c-3.6-1.1-6.6-2.7-9-4.7c-0.1-0.1-0.1-0.1-0.2-0.2h-1.3c1.1,1.4,2.3,2.6,3.5,3.7
			l0,0c0.3,0.3,0.6,0.6,1,0.8l0.4,0.4c0.7,0.5,1.3,1,2,1.5l0,0l0,0c0.6,0.4,1.2,0.8,1.8,1.2l0,0c2.3,1.5,4.7,2.6,7.1,3.5
			c2.3,1,4.8,1.7,7.2,2.3l-0.1,0.1l0,0h0l0,0l0,0c-0.5,2.5-0.8,5-1,7.6c-0.1,1.3-0.1,2.6-0.1,4c0,1.3,0.2,2.7,0.3,4.1l0,0l0,0.3
			l0.1,0.9c0.1,0.4,0.2,0.8,0.2,1.3c0.1,0.4,0.1,0.7,0.2,1.1c0.1,0.6,0.3,1.1,0.5,1.7c0.1,0.4,0.2,0.8,0.3,1.2l0,0
			c0.6,1.9,1.4,3.8,2.5,5.6c0.9,1.6,1.9,3.2,3.1,4.7l0.2,0.2l0,0c1.2,1.4,2.4,2.9,3.9,4.3l0,0c0.5,0.5,1,0.9,1.5,1.4l0.1,0.1l0,0
			l0,0c1,0.8,1.9,1.6,2.9,2.4l0,0c1.7,1.2,3.3,2.2,5,3.1l0,0c0.3,0.2,0.6,0.3,0.9,0.4l0.9,0.4c0.7,0.3,1.5,0.7,2.2,1l0.4,0.2
			l0.3,0.1c0.3,0.1,0.6,0.2,0.9,0.3l0,0c2,0.7,4,1.1,5.9,1.5l0,0c0.2,0,0.5,0.1,0.7,0.1l0.1,0c1.9,0.3,3.9,0.4,5.7,0.4l0,0
			c1.1,0,2.2-0.1,3.3-0.2c1.1-0.1,2.2-0.3,3.2-0.5c2.1-0.4,4.1-0.8,6.1-1.4l2.5-0.8l0,0.1l0,0c0.5,1.2,1,2.3,1.5,3.5
			c0.5,1.1,1.1,2.3,1.7,3.4c0.6,1.1,1.3,2.3,2,3.4c0.7,1.1,1.6,2.1,2.5,3.2l0,0l0.3,0.4l0.5,0.6c0.3,0.3,0.5,0.6,0.8,0.8l0.8,0.8
			c0.6,0.5,1.2,1,1.8,1.5c0.2,0.1,0.3,0.3,0.5,0.4l0,0c1.5,1.2,3.2,2.4,5,3.3l0,0l0.1,0.1l0.1,0c0.2,0.1,0.4,0.2,0.6,0.3
			c0.7,0.3,1.4,0.7,2.1,1c0.4,0.1,0.7,0.3,1.1,0.5c0.5,0.2,1,0.4,1.5,0.6l0,0c1.6,0.5,3.4,1,5.2,1.4l0,0c0.7,0.2,1.5,0.3,2.2,0.4
			l0.2,0l0.2,0l0,0c1.1,0.1,2.2,0.2,3.3,0.3l0,0c1.9,0.2,3.7,0.1,5.4-0.1c1.7-0.2,3.3-0.3,4.9-0.7c1.8-0.4,3.5-0.9,5.1-1.5
			c1.6-0.6,3.1-1.4,4.5-2.1c0.5-0.3,1-0.6,1.5-0.9c0.4-0.2,0.8-0.5,1.2-0.7l0-0.1c3.6-2.6,6.5-5.4,9-8.5l1.5-1.8l0,0l0,0l0,0
			c4.4,3.1,9.1,6,14.9,7.7c1.7,0.5,3.5,0.8,5.4,1c1.9,0.2,3.9,0.3,6,0.1c1.8-0.2,3.7-0.4,5.6-0.8l0.3-0.1l0,0c1.8-0.5,3.7-1,5.6-1.7
			l0,0c0.6-0.3,1.2-0.5,1.9-0.8l0.1-0.1l0,0l0,0c1.2-0.5,2.3-1.1,3.4-1.7l0,0c1.8-1,3.4-2.1,4.9-3.2l0,0c0.3-0.2,0.5-0.4,0.8-0.6
			l0.8-0.6c0.6-0.5,1.2-1.1,1.8-1.6l0.3-0.3l0.3-0.3c0.2-0.2,0.5-0.4,0.7-0.7l0,0c1.5-1.5,2.7-3.1,3.8-4.7l0,0
			c0.1-0.2,0.3-0.4,0.4-0.6l0-0.1c1.1-1.6,2-3.3,2.7-5l0,0c0.9-2.1,1.6-4.1,2.2-6.2c0.5-2.1,1-4.1,1.3-6.1l0.3-2.6l0.1,0.1l0,0
			l2.3,0.1c4.9,0.1,10-0.3,15.3-2.1c1.5-0.5,3-1.2,4.5-2c1.5-0.8,3.1-1.7,4.5-2.8c1.5-1.2,3.1-2.4,4.5-4l0.1-0.1l0,0
			c1.3-1.4,2.5-2.9,3.7-4.5l0,0c0.4-0.6,0.8-1.2,1.2-1.8l0.1-0.1l0,0l0,0c0.7-1.1,1.3-2.2,1.9-3.2l0,0c1-1.8,1.7-3.6,2.4-5.4l0,0
			c0.1-0.3,0.2-0.5,0.3-0.8c0.1-0.3,0.2-0.6,0.3-0.9c0.2-0.8,0.4-1.5,0.6-2.3l0.1-0.4l0.1-0.4c0.1-0.4,0.2-0.8,0.3-1.1l0,0
			c0.4-2,0.6-4.1,0.6-6l0,0c0-0.4,0-0.8,0-1.3L341.8,221.1z M121.6,258.6c-0.8-1.7-1.4-3.5-1.7-5.3l-0.1-0.4l8.2-7.1
			c-1.1-1.3-2.3-2.6-3.3-4l-5.5,4.4c0-2.3,0.1-4.5,0.5-6.8c0.2-1.2,0.4-2.4,0.6-3.7c1.7,0.3,3.5,0.6,5.2,0.9
			c1.7,0.3,3.3,0.5,4.9,0.8l-5.5,4.4c1,1.4,2.2,2.7,3.3,4l8.2-7.1c1.7,0.5,3.3,1,4.9,1.7l-9.7,9.1v0L121.6,258.6z M128.3,268
			c-1.5-1.4-2.6-2.9-3.7-4.3l10.4-10.6l10.4-10.6c1.2,0.7,2.4,1.6,3.6,2.6l-10.3,11.5v0L128.3,268z M137.6,274.7
			c-1.6-0.8-3.2-1.7-4.9-2.9l9.7-11.8l-3-2.6l3,2.6l9.7-11.8c1.1,1.1,2.1,2.2,3,3.3l-8.8,11.6v0L137.6,274.7z M149.3,277.6l-0.4,0
			c-1.8-0.1-3.7-0.4-5.5-0.9l7.3-10.7l7.3-10.6c0.7,1.2,1.3,2.3,1.9,3.5l0.5,1.1l-5.5,8.8v0L149.3,277.6z M155.9,277.3l3.3-5.8
			l3.3-5.8c0.3,1,0.7,2,1,2.9c0.4,1,0.7,2,1.1,3c0.4,1.2,0.8,2.3,1.3,3.5C162.7,276,159.3,276.9,155.9,277.3z M180,280.8l-2.2,6.6
			c-1.2-1.9-2.3-3.8-3.2-5.9c-0.5-1.1-1-2.2-1.5-3.4c3.3-1.4,6.3-2.7,9.3-4L180,280.8z M189.7,283.6l-3.2,12.9c-1.6-1-3-2.2-4.3-3.5
			l-0.4-0.4l3-10.4l3-10.4c1.7-0.6,3.3-0.9,5-1.3L189.7,283.6z M199.3,285.6l-2.4,15.2c-1.8-0.4-3.5-0.9-5-1.5l2.9-14.5l2.9-14.5
			c1.3-0.1,2.6,0,4.1,0.1L199.3,285.6L199.3,285.6z M208.7,286.7l-1.2,14.7c-1.5,0.2-3.1,0.3-4.8,0.2l1.8-15.2h0l1.8-15.2
			c1.3,0.3,2.5,0.6,3.7,1L208.7,286.7z M218.5,297.7c-1.6,0.9-3.3,1.6-5.1,2.3l0.5-13l0.5-13c1.2,0.6,2.4,1.3,3.5,2.1l1,0.7l0,10.4
			l0,10.4L218.5,297.7z M224.3,293.4L224,287l-0.3-6.5c1.4,1.2,2.9,2.4,4.3,3.6c0.9,0.8,1.9,1.6,2.8,2.3
			C228.8,288.9,226.7,291.3,224.3,293.4z M241.6,287.4c-1-0.7-2.1-1.4-3.1-2.1c1-1.4,2-2.9,3-4.3c1-1.4,1.9-2.8,2.8-4.1l1.6,6.9h0
			l1.6,6.9C245.5,289.8,243.5,288.7,241.6,287.4z M254.3,293.1l-0.4-0.1l-3-10.4l-3-10.4c1.1-1.3,2.3-2.5,3.6-3.7l4.2,12.7l0,0
			l4.2,12.7C258,293.8,256.1,293.5,254.3,293.1z M265.9,293.2l-5.3-13.9v0l-5.3-13.9c1.1-0.8,2.4-1.5,3.8-2.2l6.1,14.2l0,0l6.1,14.2
			C269.4,292.4,267.6,292.9,265.9,293.2z M276.6,289.2l-6.6-13.8l-6.6-13.8c1.4-0.6,2.8-1,4.2-1.3l6.9,12.9l6.9,12.9
			C279.9,287.1,278.3,288.2,276.6,289.2z M288.6,277c-0.9,1.6-1.9,3.2-3.1,4.7l-6.6-11.1l0,0l-6.6-11.1c1.3-0.1,2.7-0.2,4-0.2l1.2,0
			l5.6,8.7l0,0l0,0l5.6,8.7L288.6,277z M291.4,270.5l-3.9-5.5l-3.9-5.5c2.1,0.2,4.1,0.4,6.2,0.6c1.2,0.1,2.5,0.2,3.7,0.3
			C293,263.8,292.4,267.3,291.4,270.5z M316.4,253.4l-8.2-7.1c-1.1,1.3-2.3,2.6-3.5,3.8l5.1,4.9c-3.4,0.5-7,0.5-10.5,0.5
			c0-1.2,0.1-2.5,0.1-3.7c0.1-2.2,0.1-4.4,0.2-6.5l5.1,4.9c1.2-1.2,2.4-2.5,3.5-3.8l-8.1-7.1l0-0.4c0.2-1.6,0.6-3.1,0.9-4.7
			l10.4,8.4l0,0l10.4,8.4C320.1,251.9,318.2,252.7,316.4,253.4z M326.5,247.1l-11.9-8.8l-12-8.8c0.5-1.3,1.2-2.6,2-3.9l12.8,8.6v0
			l12.8,8.6C329.1,244.5,327.8,245.9,326.5,247.1z"/>
	</g>
	<g>
		<path class="st1" d="M141.8,187.1c2.8-4.5,5.9-9.2,9.3-14.3c3.4-5.1,6.7-10.1,9.9-15.1c0.8-1.3,0.8-2.8,0-4.4
			c-0.8-1.6-1.9-3-3.2-4.1c-1.3-1.1-2.6-1.9-3.8-2.2c-0.3-0.1-0.6-0.1-0.8-0.1c-0.7,0-1,0.4-1,1.1c0.1,0.5,0,1.1-0.3,1.9
			c-0.3,0.8-0.6,1.7-1.1,2.8c-0.6,1.5-1.7,3.5-3.2,6.1c-1.5,2.6-3.2,5.4-5,8.5c-1.8,3.1-3.7,6.2-5.6,9.5c-1.9,3.3-3.7,6.4-5.3,9.2
			c-1.6,2.9-2.9,5.4-3.8,7.5c-1,2.1-1.4,3.6-1.2,4.3c0.1,1.7,0.4,3.1,1,4.3c0.6,1.2,1.2,2.2,2,3c0.8,0.8,1.5,1.3,2.3,1.6
			c0.4,0.1,0.7,0.2,1,0.2c0.3,0,0.7-0.1,0.9-0.3c-0.6-1.7-0.1-4.2,1.5-7.7C136.9,195.5,139,191.5,141.8,187.1z"/>
		<path class="st1" d="M196.1,158.7c0.8-4.8,0.3-9-1.5-12.5c-1.8-3.5-4.4-6.3-7.9-8.5c-3.4-2.2-7.4-3.8-11.9-4.7
			c-3.6-0.8-7.2-1.1-10.8-1.1c-1,0-1.9,0-2.9,0.1c-6.1,0.4-12.3,1.6-18.4,3.6c-0.6,0.2-1.3,0.4-1.9,0.7c-5.4,1.9-10.5,4.5-15.3,7.8
			c-4.5,3.1-8.6,6.7-12.2,10.9c-0.6,0.7-1.2,1.4-1.8,2.1c-4,5.1-7,10.9-8.9,17.4c-0.6,1.9-0.6,3.8,0,5.6c0.5,1.8,1.3,3.4,2.2,4.8
			c1,1.3,1.9,2.3,2.8,2.9c0.5,0.3,0.9,0.5,1.1,0.5c0.3,0,0.4-0.1,0.5-0.4c0.6-3.9,1.8-7.9,3.7-12c1.9-4,4.3-7.9,7-11.7
			c2.4-3.2,5-6.3,7.9-9.2c0.5-0.5,0.9-0.9,1.4-1.4c1.2-1.2,2.5-2.3,3.8-3.4c2.2-1.9,4.5-3.7,6.8-5.3c3.6-2.5,7.3-4.5,10.9-6.1
			c3.6-1.5,7-2.4,10.1-2.7c0.5,0,1,0,1.6,0c3.8,0,7.2,0.4,10.2,1.3c3.3,1,6.1,2.4,8.1,4.2c2.1,1.8,3.4,4.1,4.1,6.7
			c0.7,2.6,0.6,5.6-0.2,8.9c-1.5,5.5-3.6,10.8-6.4,16c-2.8,5.2-6,10.1-9.7,14.7c-3.7,4.6-7.7,8.8-12.1,12.6
			c-4.4,3.8-8.9,7.1-13.5,9.8c-4.6,2.7-9.3,4.9-13.9,6.4c-4.7,1.5-9.1,2.3-13.3,2.3c-4.3,0-8-0.7-10.9-2.1c-3-1.4-5.2-3.2-6.8-5.4
			c-1.6-2.2-2.5-4.7-2.8-7.5c-0.3-2.8,0.1-5.5,1.1-8.2c0.7-1.8,0.8-2.9,0.3-3.1c-0.1,0-0.1,0-0.2,0c-0.5,0-1.4,0.8-2.6,2.4
			c-0.9,1.1-1.6,2.6-2.2,4.5c-0.6,1.8-0.9,3.6-0.9,5.3c-0.1,2.7,0.4,5.3,1.3,7.6c0.9,2.3,2.4,4.3,4.3,6c1.6,1.4,3.7,2.5,6.1,3.4
			c0.5,0.2,1,0.4,1.5,0.5c2.1,0.6,4.5,1,7.2,1.2c1.2,0.1,2.5,0.2,3.8,0.2c0.8,0,1.7,0,2.5-0.1c1.7-0.1,3.5-0.2,5.3-0.4
			c2.8-0.4,5.7-0.9,8.7-1.6c5.8-1.4,11.5-3.5,17.2-6.2c5.7-2.7,11.1-5.9,16.4-9.8c5.3-3.8,10-8.1,14.3-13
			c4.3-4.8,7.9-10.1,10.8-15.7C192.9,171,195,165,196.1,158.7z"/>
		<path class="st1" d="M200.7,173.6c0.3,0.2,0.7,0.3,1.1,0.5c0.6,0.3,1.2,0.8,1.8,1.2c0.4,0.1,0.8,0.2,1.2,0.2
			c0.7,0,1.3-0.1,1.9-0.4c1.4-0.7,2.8-1.9,4.1-3.7c2.1-2.8,4.6-5.1,7.4-6.8l-3.3-4.8c-0.7-0.4-1.4-0.7-2.2-0.9
			c-0.5-0.1-1-0.2-1.4-0.2c-0.5,0-0.9,0.1-1.2,0.3c-0.8,0.4-1.7,1.2-2.5,2.2c-0.9,1-1.7,2.2-2.5,3.4c-0.8,1.2-1.5,2.5-2.2,3.8
			c-0.7,1.3-1.2,2.4-1.6,3.3c-0.4,0.8-0.6,1.4-0.6,1.8C200.7,173.4,200.7,173.5,200.7,173.6z"/>
		<path class="st1" d="M343.4,191.8c-0.1-0.4-0.2-0.7-0.5-0.9c-0.2-0.1-0.4-0.2-0.7-0.2c-0.1,0-0.3,0-0.4,0
			c-0.4,0.1-0.8,0.4-1.3,0.9c-1.7,1.9-3.6,4-5.7,6.3c-2.1,2.3-4.2,4.4-6.2,6.4c-2,1.9-3.8,3.5-5.5,4.8c-1.4,1.1-2.5,1.6-3.2,1.6
			c-0.1,0-0.2,0-0.3,0c-0.7-0.1-0.8-0.8-0.4-2.1c0.4-1.2,1.2-2.7,2.3-4.5c1.1-1.8,2.4-3.7,3.8-5.8c1.5-2.1,2.9-4.1,4.3-6
			c1.4-1.9,2.6-3.6,3.7-5c1.1-1.5,1.7-2.5,2-3c0.4-0.9,0.5-1.8,0.2-2.6c-0.3-0.9-0.8-1.6-1.4-2.3c-0.6-0.7-1.4-1.3-2.3-1.8
			c-0.9-0.5-1.7-0.8-2.4-1c-0.5-0.1-0.9-0.2-1.3-0.2c-0.2,0-0.4,0-0.5,0c-0.5,0.1-0.7,0.4-0.6,0.9c0.1,0.5-0.1,1.3-0.5,2.3
			c-0.5-1.5-1.7-2.4-3.5-2.6c-0.3,0-0.6,0-1,0c-1.8,0-3.5,0.3-5.1,0.9c-2,0.7-3.9,1.7-5.6,3c-1.8,1.3-3.5,2.8-5.2,4.5
			c-1.7,1.7-3.2,3.5-4.6,5.4c-1.4,1.9-2.5,3.7-3.4,5.4c-0.4,0.5-0.9,0.9-1.3,1.4c-2,2.1-4,4-6,5.8c-2,1.8-3.8,3.3-5.4,4.4
			c-1.6,1.2-2.9,1.9-3.8,2.1c-0.6,0.1-1.1,0.1-1.5,0.1c-0.2,0-0.5,0-0.7,0c-0.6-0.1-1.1-0.3-1.4-0.7c-0.3-0.4-0.4-1-0.3-1.7
			c0.1-0.8,0.5-1.7,1.3-2.9l2.7-4.3c1.3-2.1,2.8-4.5,4.5-7.3c1.8-2.8,3.6-5.8,5.7-9c2-3.2,4-6.5,6-9.6c2-3.2,3.8-6.1,5.5-8.9
			c1.7-2.8,3.2-5.1,4.3-7c1.9-0.2,3.6-0.3,5-0.5c1.4-0.1,2.4-0.3,3.1-0.4c1-0.1,2.3-0.2,3.8-0.2c0.5,0,1,0,1.6,0
			c2.3,0.1,4.6,0.3,7.1,0.6c2.5,0.4,4.8,0.9,7.1,1.5c2.3,0.7,4.2,1.5,5.6,2.5c0.2,0.1,0.3,0.2,0.4,0.2c0.2,0,0.4-0.1,0.5-0.3
			c0.3-0.3,0.4-0.9,0.4-1.5c0-0.7-0.2-1.4-0.5-2.3c-0.3-0.9-0.8-1.8-1.5-2.7c-0.3-0.3-0.6-0.6-0.9-0.8c-0.7-0.5-1.5-1-2.4-1.4
			c-1.3-0.6-2.8-1-4.3-1.3c-1.5-0.3-3-0.5-4.4-0.6c-1.5-0.1-2.7-0.1-3.7-0.1c-2.6,0.1-5.1,0.3-7.4,0.4c-2.3,0.1-4.5,0.4-6.5,0.7
			c0.1-1.3-0.4-2.5-1.3-3.5c-1-1-2-1.8-3.1-2.4c-1.1-0.6-2.1-0.9-3-0.9c0,0-0.1,0-0.1,0c-0.8,0-1.2,0.3-1,1c0.1,0.4-0.2,1.4-0.9,2.9
			c-0.2,0.4-0.5,0.9-0.7,1.4c-0.6,1.2-1.4,2.6-2.3,4.2c-1.7,0.5-3.3,1-4.8,1.6c-1.5,0.5-3,1.1-4.5,1.7c-1.8,0.8-3.2,1.4-4.2,2
			c-1,0.6-1.6,1-1.9,1.3c-0.3,0.3-0.3,0.5,0,0.6c0.1,0,0.2,0,0.4,0c0.3,0,0.7-0.1,1.1-0.2c1.7-0.3,3.5-0.6,5.3-0.9
			c1.8-0.3,3.6-0.6,5.4-0.9c-1.5,2.4-3.1,5-4.8,7.7l-5.2,8.1c-1.7,2.7-3.4,5.3-5.1,7.9c-1.7,2.6-3.2,5-4.5,7.3
			c-0.5,0.8-0.9,1.5-1.4,2.2c-1.2,1.3-2.4,2.7-3.8,4.3c-1.8,2.1-3.8,4.1-5.7,5.9c-2,1.8-4,3.4-6.1,4.7c-2.1,1.3-4.2,2-6.2,2.1
			c-0.3,0-0.6,0-0.9,0c-0.8,0-1.4-0.1-1.9-0.4c-0.6-0.4-1-0.9-1.1-1.7c-0.1-0.7-0.1-1.6,0.2-2.6c0.3-1,0.7-2.2,1.2-3.4
			c0.2,0,0.3,0,0.5,0c1.6,0,3.2-0.3,5-0.9c1.9-0.6,3.8-1.5,5.6-2.5s3.5-2.3,5.1-3.7c1.6-1.4,2.9-2.9,4.1-4.4c1.1-1.5,2-3.1,2.5-4.6
			c0.6-1.6,0.7-3,0.5-4.3c-0.3-1.7-1.1-3.1-2.3-4c-1.1-0.9-2.5-1.3-4.1-1.3c-0.2,0-0.3,0-0.5,0c-1.9,0.1-4,0.7-6.4,2
			c-2.4,1.2-4.8,3.1-7.5,5.7l-0.1,0.1c-1.8,1.9-3.6,4-5.1,6.4c-0.4,0.6-0.7,1.2-1.1,1.8c-1.5,1.7-3,3.4-4.8,5.3
			c-2.1,2.3-4.2,4.4-6.2,6.4c-2,1.9-3.8,3.5-5.5,4.8c-1.4,1.1-2.5,1.6-3.2,1.6c-0.1,0-0.2,0-0.3,0c-0.7-0.1-0.8-0.8-0.4-2.1
			c0.4-1.2,1.2-2.7,2.3-4.5c1.1-1.8,2.4-3.7,3.8-5.8c1.5-2.1,2.9-4.1,4.3-6c1.4-1.9,2.6-3.6,3.7-5c1.1-1.5,1.7-2.5,2-3
			c0.4-0.9,0.5-1.8,0.2-2.6c-0.3-0.9-0.8-1.6-1.4-2.3c-0.6-0.7-1.4-1.3-2.3-1.8c-0.9-0.5-1.7-0.8-2.4-1c-0.5-0.1-0.9-0.2-1.3-0.2
			c-0.2,0-0.4,0-0.5,0c-0.5,0.1-0.7,0.4-0.6,0.9c0.1,0.5-0.1,1.3-0.5,2.3c-0.5-1.5-1.7-2.4-3.5-2.6c-0.3,0-0.6,0-1,0
			c-1.8,0-3.5,0.3-5.2,0.9c-2,0.7-3.9,1.7-5.6,3c-1.8,1.3-3.5,2.8-5.2,4.5c-1.7,1.7-3.2,3.5-4.6,5.4c-1.5,2.1-2.8,4.1-3.8,6
			c-0.3,0.3-0.5,0.6-0.8,0.9c-2,2.2-3.9,4.2-5.8,6c-1.9,1.8-3.6,3.3-5.1,4.4c-1.3,1-2.3,1.4-3,1.4c-0.1,0-0.2,0-0.4,0
			c-0.6-0.1-0.6-0.8-0.2-1.9c0.4-1.1,1.2-2.6,2.2-4.3c1-1.7,2.2-3.5,3.6-5.5c1.4-2,2.7-3.9,4-5.7c1.2-1.8,2.3-3.4,3.3-4.8
			c1-1.4,1.5-2.4,1.7-3c0.5-1.5,0.3-2.8-0.6-4c-0.4-0.6-0.9-1.1-1.4-1.5c-0.6-0.5-1.2-1-1.8-1.3c-0.6-0.3-1.1-0.5-1.6-0.7
			c-0.6-0.2-1.2-0.4-1.7-0.4c-0.1,0-0.2,0-0.3,0c-0.8,0-1.1,0.3-0.9,1c0.1,0.6-0.1,1.6-0.7,2.8c-0.6,1.2-1.3,2.7-2.3,4.3
			c-1,1.7-2.1,3.4-3.3,5.4c-1.2,1.9-2.5,3.8-3.6,5.8c-1.2,1.9-2.3,3.8-3.3,5.6c-1,1.8-1.7,3.4-2.2,4.8c-0.3,0.7-0.4,1.6-0.4,2.7
			c0,1.1,0.1,2.1,0.5,3.1c0.4,1,1,1.8,2,2.5c0.8,0.6,1.8,0.9,3.2,0.9c0.2,0,0.5,0,0.8,0c1.9-0.1,4-0.9,6.4-2.4
			c2.3-1.5,4.6-3.4,6.9-5.6c0.7-0.6,1.3-1.3,1.9-1.9c-0.2,1.1-0.3,2.1-0.2,3.1c0.1,2.1,0.7,3.8,1.9,4.9c1.1,1.1,2.6,1.6,4.4,1.6
			c0.1,0,0.2,0,0.3,0c1.7-0.1,3.3-0.7,5-2c1.7-1.3,3.4-2.8,5-4.7c-0.1,0.8,0,1.6,0.2,2.4c0.2,0.9,0.5,1.6,1,2.3
			c0.5,0.7,1.1,1.3,2,1.7c0.7,0.4,1.6,0.5,2.7,0.5c0.2,0,0.3,0,0.5,0c2-0.1,4.1-0.9,6.4-2.4c2.3-1.5,4.6-3.4,6.9-5.6
			c1.4-1.3,2.8-2.8,4.1-4.2c-0.1,0.5-0.2,0.9-0.3,1.4c-0.4,2.1-0.4,4,0.1,5.7c0.4,1.7,1.4,3,2.9,3.9c1.4,0.9,3.3,1.3,5.7,1.3
			c0.2,0,0.3,0,0.5,0c1.8,0,3.6-0.4,5.5-1.3c1.9-0.9,3.8-2,5.7-3.3c1.9-1.3,3.7-2.8,5.4-4.4c0.9-0.8,1.7-1.6,2.5-2.4
			c-0.1,0.4-0.1,0.8-0.1,1.2c-0.2,1.6,0,3.2,0.5,4.8c0.5,1.6,1.5,2.9,2.9,3.9c1.2,0.9,2.9,1.3,5,1.3c0.4,0,0.8,0,1.2,0
			c2-0.1,4.1-0.9,6.5-2.4c2.4-1.5,4.7-3.3,7.1-5.5c0.8-0.7,1.6-1.5,2.4-2.3c-0.3,1.3-0.4,2.5-0.3,3.6c0.1,2.1,0.7,3.8,1.9,4.9
			c1.1,1.1,2.6,1.6,4.4,1.6c0.1,0,0.2,0,0.3,0c1.7-0.1,3.3-0.7,5-2c1.7-1.3,3.4-2.8,5-4.7c-0.1,0.8,0,1.6,0.2,2.4
			c0.2,0.9,0.5,1.6,1,2.3c0.5,0.7,1.1,1.3,2,1.7c0.7,0.4,1.6,0.5,2.7,0.5c0.2,0,0.3,0,0.5,0c2-0.1,4.1-0.9,6.4-2.4
			c2.3-1.5,4.6-3.4,6.9-5.6c2.3-2.2,4.5-4.6,6.6-7.1c2.1-2.5,4-4.8,5.5-6.9C343.3,192.7,343.4,192.2,343.4,191.8z M254.2,195.3
			c1.1-1.6,2.2-3.2,3.3-4.8c1.2-1.6,2.4-3.1,3.6-4.5c1.2-1.4,2.4-2.5,3.4-3.2c1.6-1.1,2.8-1.7,3.6-1.7c0.2,0,0.3,0,0.5,0.1
			c0.8,0.3,1.1,1.1,0.9,2.3s-0.7,2.8-1.8,4.7c-1,1.9-2.3,3.7-4,5.4c-1.6,1.7-3.5,3.1-5.6,4.3c-2,1.2-4.2,1.7-6.4,1.7
			c-0.1,0-0.2,0-0.4,0C252.3,198.4,253.2,197,254.2,195.3z M223.3,196.2c-1.5,1.9-3,3.7-4.3,5.5c-1.4,1.8-2.7,3.3-3.9,4.6
			c-1.2,1.3-2.4,2.4-3.5,3.3c-1.1,0.9-2.2,1.3-3.2,1.4c0,0-0.1,0-0.1,0c-0.6,0-0.9-0.5-0.9-1.5c0-1.1,0.3-2.4,0.8-4.1
			c0.5-1.7,1.4-3.6,2.5-5.6c1.1-2.1,2.5-4.1,4.1-6.2c1.3-1.6,2.7-3.2,4.2-4.8c1.5-1.6,2.9-3,4.3-4.3c1.4-1.2,2.7-2.2,3.8-3
			c1.1-0.8,2.1-1.1,2.8-1.1c0.6,0,1,0.2,1.2,0.6c0.2,0.4,0.2,0.9,0,1.5c-0.1,0.6-0.3,1.2-0.6,1.9c-0.3,0.7-0.6,1.3-0.9,2
			c-1,1.5-2,3.1-3,4.8C225.3,192.8,224.3,194.5,223.3,196.2z M316.9,196.2c-1.5,1.9-3,3.7-4.3,5.5c-1.4,1.8-2.7,3.3-3.9,4.6
			c-1.2,1.3-2.4,2.4-3.5,3.3c-1.1,0.9-2.2,1.3-3.2,1.4c0,0-0.1,0-0.1,0c-0.6,0-0.9-0.5-0.9-1.5c0-1.1,0.3-2.4,0.8-4.1
			c0.5-1.7,1.4-3.6,2.5-5.6c1.1-2.1,2.5-4.1,4.1-6.2c1.3-1.6,2.7-3.2,4.2-4.8c1.5-1.6,2.9-3,4.3-4.3c1.4-1.2,2.7-2.2,3.8-3
			c1.1-0.8,2.1-1.1,2.8-1.1c0.6,0,1,0.2,1.2,0.6c0.2,0.4,0.2,0.9,0,1.5c-0.1,0.6-0.3,1.2-0.6,1.9c-0.3,0.7-0.6,1.3-0.9,2
			c-1,1.5-2,3.1-3,4.8C318.9,192.8,317.9,194.5,316.9,196.2z"/>
		<path class="st1" d="M207.7,151.7c0.1,0,0.1-0.2,0.2-0.2c0-1.7,0.4-3.5,1.1-5.1c0.7-1.5,1.6-2.8,2.6-3.7c0.6-0.6-0.4,0.8,0.3,0.3
			c0.6-0.6,1.9-1.7,2.6-2.2c0.8-0.3-0.4,0.8,0.4,0.5c0,0,0.1,0,0.2-0.1c0.4-0.2,1.2-0.6,2-1c0.9-0.4,1.9-0.6,2.3-0.6
			c0.6,0,0.8,0,0.7,0c-0.1,0-0.4,0.1-0.9,0.2c-1,0.2-2.4,0.8-3.4,1.4c0.7-0.3-1.3,0.9-1.2,1c0.1,0.1,0.2,0.2,0.6,0.1
			c0.4-0.1,1.1-0.5,2.4-1c0.7-0.2,0.1,0.3,0.2,0.4c0.9-0.4,1.8-0.6,2.7-0.6c0.5,0,0.9,0.1,1.4,0.2c0.2,0.1,0.5,0.1,0.7,0.2l0.3,0.1
			c0.1,0,0.3,0.1,0.2,0.1l0,0l0.1,0.2l0.2,0.4l0.5,1c0.3,0.7,0.7,1.3,1.2,1.7c0.2,0.2,0.4,0.3,0.7,0.4c0.3,0,0.5,0.2,0.9,0.1
			c1.1,0,2.1-1,2.8-2.4l0.4-0.7l0.3-0.4c0.1-0.1,0.2-0.2,0.2-0.3c0,0,0,0,0,0c0.7-0.4,1.6-0.7,2.5-0.7c0.9-0.1,1.8,0.1,2.6,0.4
			c0.9,0.3,1.8,0.8,2.6,1.4c0.8,0.6,1.6,1.2,2.2,1.9c1.2,1.3,2.1,3,2.5,4.9c0.4,1.9,0.3,3.9-0.3,5.9c-1.1,4.1-3.4,7.7-5.7,10.8
			c-0.7,1-1.7,2.2-2.6,2.5c-0.9,0.4-1.8,0.1-2.5-0.1c0.6,0.3,1.2,0.5,1.8,0.4c-0.4,0.1-0.9,0-1.3-0.2c-0.2-0.1-0.5-0.2-0.7-0.3
			c-0.3-0.1-0.6-0.3-0.9-0.4c-1.2-0.6-2.6-0.9-4-0.9c0,0.2,0,0.2-0.9,0.4c0.9-0.1,2.1-0.1,3.1,0.2c1.1,0.2,2.1,0.8,2.8,1.1l-0.1,0.2
			c-0.7-0.3-1.7-0.8-2.7-1.1c-1-0.3-2.2-0.3-3-0.2c0,0.1,0,0.2,0,0.3c0,0.1-0.8,0.2-1.6,0.5c0.4-0.1,1-0.3,1.6-0.4
			c0.6-0.1,1.3-0.1,1.7,0c0,0.1,0,0.2,0,0.3c0,0,0,0,0,0c0,0.1-0.8,0-1.6,0.1c0,0.1-0.7,0.4,0.1,0.4c0.7-0.1,1.5-0.1,2.3,0.1
			c-1.5-0.3-2.6,0.1-3.3,0.4c-0.7,0.3-0.9,0.7-0.9,0.8c0.6-0.4,0.7-0.2,1.3-0.4c-0.5,0.2-0.9,0.4-1.3,0.7c-0.2,0.1-0.3,0.3-0.5,0.4
			c-0.2,0.1-0.4,0.3-0.6,0.4c-0.3,0.2-0.3,0.2-0.1,0.2c0.1,0,0.4-0.1,0.7-0.3c0.3-0.1,0.4-0.2,0.8-0.4c1.6-0.8,3.3-0.8,5.1,0.1
			c0.2,0.1,0.4,0.2,0.7,0.3c0.3,0.2,0.6,0.3,1,0.4c0.7,0.3,1.5,0.5,2.3,0.5c0.9,0,1.7-0.2,2.5-0.6c0.7-0.4,1.3-0.9,1.8-1.4
			c0.5-0.5,0.9-1,1.3-1.5l1.1-1.4c0.7-1,1.4-1.9,2.1-3c1.3-2,2.4-4.3,3.2-6.6c0.8-2.3,1.2-5,0.9-7.6c-0.3-2.6-1.3-5.2-3-7.2
			c-1.7-2.1-3.8-3.6-6.2-4.6c-1.3-0.5-2.7-0.8-4.1-0.7c-1,0.1-1.9,0.3-2.8,0.6l0-0.1c0.5-1.1,1.1-2.2,1.9-3.1
			c0.8-0.9,1.6-1.7,2.6-2.4c0.5-0.3,1-0.6,1.6-0.9c0.3-0.1,0.6-0.2,0.8-0.4c0.1-0.1,0.3-0.1,0.4-0.2l0.5-0.2c0.1,0,0.2-0.1,0.2-0.1
			c0.1-0.1,0.2-0.2,0.3-0.2c0.1-0.1,0.1-0.1,0.1-0.1c0-0.1,0-0.1,0-0.1c0,0-0.1,0-0.1,0l-0.2,0.2c-0.1,0.1-0.2,0.1-0.3,0.2
			c-1.2,0.4-2.1,0.8-2.9,1.2c-0.3,0.2,0.2-0.3-0.1-0.2c-0.3,0.2-0.8,0.5-1.1,0.7c-0.3,0.1,0.1-0.4-0.2-0.3c0,0,0,0,0,0
			c-0.4,0.1-1.3,1.1-1.6,1.2c-0.8,0.7,0.3-0.6,1.2-1.2c-0.3,0.1,0.6-0.4,0.5-0.5c-0.1-0.1-0.2-0.3-1.4,0.5c-0.3,0.2-0.1-0.1-0.2-0.2
			c-1.3,1.1-2.4,2.6-3.3,4.1c0.4-1.1,0.9-2.2,1.6-3.2c1-1.5,2.2-2.7,3.5-3.7c0.7-0.6,2.4-1.4,2.4-1.6c-0.1,0-0.1,0-0.2,0.1l-0.4,0.2
			c0.1-0.1,0.2-0.1,0.3-0.2c0.1-0.1,0.2-0.1,0.2-0.1c0.1,0,0.2-0.1,0.3-0.1c0.1,0,0.1,0.1,0.2,0.2l0,0.1c0,0.1,0.1,0.2,0.1,0.3
			c0.1,0,0.1,0,0.3,0.3c-0.1-0.3-0.2-0.6-0.3-0.9c0-0.1-0.1-0.2-0.2-0.2c-0.1,0-0.2,0-0.3,0l0-0.1c0.1-0.1,0.2-0.1,0.4-0.1
			c0.1,0,0.2,0.2,0.2,0.3c0,0.1,0.1,0.3,0.1,0.4c0.1,0.2,0.1,0.4,0.2,0.5c0,0,0.1,0,0.2-0.1c0,0,0.2,0.3,0.3,0.6
			c-0.1-0.3-0.4-1-0.4-1.3c0,0,0.1,0,0.2-0.1c0,0,0,0,0,0c0,0,0.1,0.3,0.3,0.6c0.1,0,0.3,0.3,0.2-0.1c-0.1-0.3-0.2-0.6-0.3-1
			c0.1,0.4,0.2,0.7,0.3,0.9c0.1,0.2,0.2,0.4,0.3,0.6c0.2,0.3,0.3,0.4,0.4,0.4c-0.2-0.3,0-0.4-0.2-0.6c0.5,0.9,1,1.9,0.6,0.5
			c-0.1-0.4-0.3-0.8-0.4-1.1c-0.1-0.1-0.3-1.4-0.8-1.8c-0.6-0.5-1.4-0.5-2.1-0.1l-0.7,0.4c-0.2,0.1-0.4,0.2-0.6,0.4
			c-1.5,0.9-3,2.1-4.2,3.4c-1.5,1.7-2.6,3.8-3.4,6c0-0.2,0-0.4-0.1-0.8c-0.3-2.2-1-4.4-2.1-6.3c-1.1-2-2.8-3.7-4.8-4.8
			c-2-1.2-4.3-1.8-6.6-1.8l-1.3,0l-0.8,0c-0.2,0-0.7-0.1-0.5,0.3l0,1.5l0,0.4c0,0.1,0,0.3,0,0.3l0,0.4c0,1.1,0.3,2.3,0.6,3.4
			c0.6,2.2,1.8,4.3,3.5,5.9c1.7,1.6,4,2.6,6.2,2.9c0.3,0,0.6,0,0.9,0.1l0.7,0c0.2,0,0.5,0,0.7,0l2.9-0.1c0.1,0,0-0.1,0-0.1l-0.1-0.1
			l-0.2-0.3l-0.4-0.6c-0.2-0.3-0.4-0.5-0.6-0.8c-0.1-0.1-0.2-0.2-0.2-0.3c-0.3-0.4-0.6-0.8-0.9-1.1l-0.6-0.6c-1.5-1.6-3.2-3-5-4.2
			c-0.8-0.5-0.5-0.2-0.5-0.1c1.6,1.1,3.2,2.3,4.2,3.4c0.4,0.3-0.5-0.2-0.2,0.2c0.4,0.3,1,1,1.3,1.4c0,0,0,0,0,0
			c0.2,0.4-0.5-0.2-0.3,0.3c0,0,0,0.1,0,0.1c0.1,0.2,0.5,0.6,0.8,1c0.2,0.2,0.3,0.4,0.5,0.6c0.1,0.2,0.3,0.4,0,0.3
			c-0.7,0-0.5-0.1-0.1-0.1c-0.3-0.4-0.8-1-1.1-1.4c0.1,0.2,0,0.1-0.2-0.2c-0.2-0.2-0.4-0.5-0.5-0.5c-0.1,0.1-0.1,0.1,0,0.4
			c0,0.1,0.1,0.3,0.3,0.5c0.1,0.2,0.1,0.2,0.1,0.3c0,0.1-0.3,0-0.4,0c0,0,0,0,0,0c0,0,0,0,0,0c0,0-0.2,0-0.7,0
			c-1.3-0.2-2.6-0.6-3.7-1.3c-2.3-1.4-3.8-3.9-4.5-6.4c-0.2-0.5-0.2-1.1-0.3-1.7c0-0.3,0-0.6-0.1-0.9l0-0.4l0-0.1
			c0-0.1,0-0.2,0.1-0.2l0.3,0c0.6,0,1.2,0.1,1.8,0.2c1.2,0.2,2.4,0.6,3.4,1.1c1.1,0.5,2,1.2,2.8,2c1,0.9,2.1,2.9,2.6,3.6
			c-0.2-0.4-0.4-0.8-0.6-1.2c0.8,1.1,1.2,2.4,1.6,3.8c0.1,0,0.1,0,0.3,0.4c-0.1-0.5-0.3-1-0.4-1.6c-0.2-0.5-0.4-1.1-0.6-1.5l0.1-0.1
			c0.2,0.4,0.4,1,0.6,1.5c0.1,0.6,0.3,1.1,0.4,1.6c0,0,0.1,0,0.2,0c0,0,0.1,0.5,0.2,0.9c-0.1-0.5-0.3-1.4-0.4-1.8c0,0,0.1,0,0.2,0
			c0,0,0,0,0,0c0,0,0.2,0.4,0.3,0.9c0.1,0,0.3,0.4,0.2,0c-0.1-0.5-0.3-0.9-0.4-1.4c0.6,1.8,0.9,2.8,1,2.8c-0.1-0.5,0-0.5-0.1-1
			c0.2,0.8,0.4,1.7,0.5,1.9c-0.3,1-0.6,2.1-0.8,3.1c-0.1-0.1-0.2-0.2-0.2-0.2c-0.2-0.1-0.3-0.2-0.4-0.3l-0.5-0.2
			c-0.1-0.1-0.2-0.1-0.4-0.2c-0.2-0.1-0.5-0.2-0.7-0.3c-0.5-0.2-1-0.3-1.5-0.4c-1.1-0.2-2.2-0.1-3.2,0.1c-1,0.2-2,0.6-2.9,1.1
			c-0.8,0.5-1.6,1-2.4,1.5c-1.5,1.2-2.9,2.6-3.9,4.3c-1,1.7-1.6,3.7-1.7,5.6C207.6,151.5,207.7,151.7,207.7,151.7z"/>
	</g>
</g>
</svg>
